<svg width="29" height="40" viewBox="0 0 29 40" fill="none" xmlns="http://www.w3.org/2000/svg">
<g clip-path="url(#clip0_76_97)">
<path d="M14.1677 39.8989L2.624 36.6943L0.0514832 7.84106H28.3185L25.7433 36.6898L14.1677 39.8989Z" fill="#264DE4"/>
<path d="M23.5387 34.8528L25.7392 10.2002H14.185V37.446L23.5387 34.8528Z" fill="#2965F1"/>
<path d="M5.94888 20.9015L6.266 24.4402H14.185V20.9015H5.94888ZM5.31154 13.739L5.6332 17.2777H14.185V13.739H5.31154ZM14.185 30.0919L14.1695 30.096L10.2284 29.0319L9.97647 26.2096H6.42411L6.91985 31.7659L14.1687 33.7781L14.185 33.7737V30.0919Z" fill="#EBEBEB"/>
<path d="M6.70401 0H10.9899V1.79235H8.49636V3.58471H10.9901V5.37695H6.70401V0ZM11.8472 0H16.1332V1.55856H13.6395V1.87025H16.1332V5.45496H11.8473V3.81828H14.3409V3.50659H11.8471L11.8472 0ZM16.9904 0H21.2764V1.55856H18.7828V1.87025H21.2764V5.45496H16.9904V3.81828H19.4841V3.50659H16.9905L16.9904 0Z" fill="black"/>
<path d="M22.3985 20.9015L23.0373 13.739H14.1728V17.2777H19.1592L18.8372 20.9015H14.1728V24.4402H18.5304L18.1195 29.0297L14.1727 30.0949V33.7765L21.4273 31.7659L21.4805 31.168L22.3122 21.8517L22.3985 20.9015Z" fill="white"/>
</g>
<defs>
<clipPath id="clip0_76_97">
<rect width="28.37" height="40" fill="white"/>
</clipPath>
</defs>
</svg>
