<svg width="16" height="16" viewBox="0 0 16 16" fill="none" xmlns="http://www.w3.org/2000/svg">
<path d="M2.75 11.25C2.75 12.0769 3.3125 12.75 4 12.75C4.15449 12.7476 4.30686 12.7136 4.44775 12.6502C4.58865 12.5868 4.71511 12.4953 4.81938 12.3813C4.86529 12.3333 4.92836 12.3056 4.9947 12.3042C5.06104 12.3028 5.12522 12.3278 5.17312 12.3737C5.22103 12.4197 5.24873 12.4827 5.25014 12.5491C5.25155 12.6154 5.22654 12.6796 5.18062 12.7275C5.02968 12.8903 4.84713 13.0205 4.64414 13.1104C4.44115 13.2002 4.22197 13.2477 4 13.25C3.035 13.25 2.25 12.3525 2.25 11.25C2.25 10.1475 3.035 9.25 4 9.25C4.22197 9.25228 4.44115 9.29979 4.64414 9.38963C4.84713 9.47946 5.02968 9.60974 5.18062 9.7725C5.22654 9.8204 5.25155 9.88459 5.25014 9.95093C5.24873 10.0173 5.22103 10.0803 5.17312 10.1263C5.12522 10.1722 5.06104 10.1972 4.9947 10.1958C4.92836 10.1944 4.86529 10.1667 4.81938 10.1187C4.71511 10.0047 4.58865 9.9132 4.44775 9.84979C4.30686 9.78638 4.15449 9.75242 4 9.75C3.3125 9.75 2.75 10.4231 2.75 11.25ZM7.90562 10.9469C7.2475 10.7594 6.96312 10.64 7.00375 10.3169C7.00953 10.2359 7.03364 10.1573 7.07424 10.0871C7.11484 10.0168 7.17088 9.95669 7.23812 9.91125C7.62937 9.64688 8.41125 9.77125 8.68 9.84188C8.74317 9.85566 8.80923 9.84443 8.8643 9.81055C8.91937 9.77667 8.95918 9.72277 8.97535 9.66017C8.99153 9.59757 8.98282 9.53113 8.95106 9.47481C8.91929 9.41849 8.86694 9.37667 8.805 9.35812C8.59021 9.30567 8.37126 9.272 8.15063 9.2575C7.64313 9.22375 7.24187 9.30438 6.95687 9.49625C6.83066 9.58178 6.7248 9.69404 6.64682 9.82506C6.56883 9.95607 6.52063 10.1026 6.50562 10.2544C6.40687 11.035 7.15938 11.2544 7.76438 11.4275C8.4675 11.6306 8.79375 11.7706 8.74125 12.1737C8.73516 12.2579 8.71006 12.3396 8.66784 12.4127C8.62562 12.4858 8.56738 12.5483 8.4975 12.5956C8.105 12.8562 7.33437 12.7238 7.07062 12.6506C7.03861 12.6404 7.00486 12.6367 6.9714 12.6398C6.93793 12.6429 6.90544 12.6528 6.87586 12.6687C6.84628 12.6847 6.82022 12.7064 6.79924 12.7327C6.77826 12.7589 6.76278 12.7892 6.75374 12.8215C6.74471 12.8539 6.74229 12.8878 6.74663 12.9211C6.75098 12.9544 6.762 12.9865 6.77904 13.0155C6.79607 13.0445 6.81878 13.0697 6.84579 13.0897C6.8728 13.1097 6.90357 13.124 6.93625 13.1319C7.22624 13.208 7.52458 13.2476 7.82438 13.25C8.14813 13.25 8.50125 13.1962 8.77563 13.0144C8.9053 12.9272 9.01415 12.8125 9.09442 12.6784C9.17468 12.5443 9.22439 12.3942 9.24 12.2388C9.3525 11.365 8.51625 11.125 7.90562 10.9469ZM11.9056 10.9469C11.2475 10.7594 10.9631 10.64 11.0037 10.3169C11.0095 10.2359 11.0336 10.1573 11.0742 10.0871C11.1148 10.0168 11.1709 9.95669 11.2381 9.91125C11.6294 9.64688 12.4113 9.77125 12.68 9.84188C12.7432 9.85566 12.8092 9.84443 12.8643 9.81055C12.9194 9.77667 12.9592 9.72277 12.9754 9.66017C12.9915 9.59757 12.9828 9.53113 12.9511 9.47481C12.9193 9.41849 12.8669 9.37667 12.805 9.35812C12.59 9.30573 12.3708 9.27206 12.15 9.2575C11.6431 9.22375 11.2412 9.30438 10.9569 9.49625C10.8307 9.58178 10.7248 9.69404 10.6468 9.82506C10.5688 9.95607 10.5206 10.1026 10.5056 10.2544C10.4062 11.035 11.1594 11.2544 11.7644 11.4275C12.4675 11.6306 12.7931 11.7706 12.7413 12.1737C12.7352 12.2579 12.7101 12.3396 12.6678 12.4127C12.6256 12.4858 12.5674 12.5483 12.4975 12.5956C12.105 12.8562 11.3344 12.7238 11.0706 12.6506C11.0386 12.6404 11.0049 12.6367 10.9714 12.6398C10.9379 12.6429 10.9054 12.6528 10.8759 12.6687C10.8463 12.6847 10.8202 12.7064 10.7992 12.7327C10.7783 12.7589 10.7628 12.7892 10.7537 12.8215C10.7447 12.8539 10.7423 12.8878 10.7466 12.9211C10.751 12.9544 10.762 12.9865 10.779 13.0155C10.7961 13.0445 10.8188 13.0697 10.8458 13.0897C10.8728 13.1097 10.9036 13.124 10.9362 13.1319C11.2262 13.208 11.5246 13.2477 11.8244 13.25C12.1475 13.25 12.5013 13.1962 12.7756 13.0144C12.9053 12.9272 13.0142 12.8125 13.0944 12.6784C13.1747 12.5443 13.2244 12.3942 13.24 12.2388C13.3519 11.365 12.5163 11.125 11.9056 10.9469ZM12.75 5.75H9.5C9.4337 5.75 9.37011 5.72366 9.32322 5.67678C9.27634 5.62989 9.25 5.5663 9.25 5.5V2.25H3.5C3.4337 2.25 3.37011 2.27634 3.32322 2.32322C3.27634 2.37011 3.25 2.4337 3.25 2.5V7C3.25 7.0663 3.22366 7.12989 3.17678 7.17678C3.12989 7.22366 3.0663 7.25 3 7.25C2.9337 7.25 2.87011 7.22366 2.82322 7.17678C2.77634 7.12989 2.75 7.0663 2.75 7V2.5C2.75 2.30109 2.82902 2.11032 2.96967 1.96967C3.11032 1.82902 3.30109 1.75 3.5 1.75H9.5C9.53284 1.74997 9.56536 1.75642 9.59571 1.76897C9.62606 1.78151 9.65364 1.79992 9.67688 1.82313L13.1769 5.32312C13.2001 5.34636 13.2185 5.37394 13.231 5.40429C13.2436 5.43464 13.25 5.46716 13.25 5.5V7C13.25 7.0663 13.2237 7.12989 13.1768 7.17678C13.1299 7.22366 13.0663 7.25 13 7.25C12.9337 7.25 12.8701 7.22366 12.8232 7.17678C12.7763 7.12989 12.75 7.0663 12.75 7V5.75ZM12.3969 5.25L9.75 2.60313V5.25H12.3969Z" fill="black"/>
</svg>
