<svg width="16" height="16" viewBox="0 0 16 16" fill="none" xmlns="http://www.w3.org/2000/svg">
<path d="M13.25 5.5C13.25 5.46716 13.2436 5.43464 13.231 5.40429C13.2185 5.37394 13.2001 5.34636 13.1769 5.32312L13.0519 5.19812L9.67688 1.82313C9.65364 1.79992 9.62606 1.78151 9.59571 1.76897C9.56536 1.75642 9.53284 1.74997 9.5 1.75H3.5C3.30109 1.75 3.11032 1.82902 2.96967 1.96967C2.82902 2.11032 2.75 2.30109 2.75 2.5V7.5C2.75 7.5663 2.77634 7.62989 2.82322 7.67678C2.87011 7.72366 2.9337 7.75 3 7.75C3.0663 7.75 3.12989 7.72366 3.17678 7.67678C3.22366 7.62989 3.25 7.5663 3.25 7.5V2.5C3.25 2.4337 3.27634 2.37011 3.32322 2.32322C3.37011 2.27634 3.4337 2.25 3.5 2.25H9.25V5.5C9.25 5.5663 9.27634 5.62989 9.32322 5.67678C9.37011 5.72366 9.4337 5.75 9.5 5.75H12.75V7.5C12.75 7.5663 12.7763 7.62989 12.8232 7.67678C12.8701 7.72366 12.9337 7.75 13 7.75C13.0663 7.75 13.1299 7.72366 13.1768 7.67678C13.2237 7.62989 13.25 7.5663 13.25 7.5V5.5ZM9.75 2.60313L12.3962 5.25H9.75V2.60313ZM4 10V13C4 13.0663 3.97366 13.1299 3.92678 13.1768C3.87989 13.2237 3.8163 13.25 3.75 13.25C3.6837 13.25 3.62011 13.2237 3.57322 13.1768C3.52634 13.1299 3.5 13.0663 3.5 13V11.75H1.75V13C1.75 13.0663 1.72366 13.1299 1.67678 13.1768C1.62989 13.2237 1.5663 13.25 1.5 13.25C1.4337 13.25 1.37011 13.2237 1.32322 13.1768C1.27634 13.1299 1.25 13.0663 1.25 13V10C1.25 9.9337 1.27634 9.87011 1.32322 9.82322C1.37011 9.77634 1.4337 9.75 1.5 9.75C1.5663 9.75 1.62989 9.77634 1.67678 9.82322C1.72366 9.87011 1.75 9.9337 1.75 10V11.25H3.5V10C3.5 9.9337 3.52634 9.87011 3.57322 9.82322C3.62011 9.77634 3.6837 9.75 3.75 9.75C3.8163 9.75 3.87989 9.77634 3.92678 9.82322C3.97366 9.87011 4 9.9337 4 10ZM7.5 10C7.5 10.0663 7.47366 10.1299 7.42678 10.1768C7.37989 10.2237 7.3163 10.25 7.25 10.25H6.5V13C6.5 13.0663 6.47366 13.1299 6.42678 13.1768C6.37989 13.2237 6.3163 13.25 6.25 13.25C6.1837 13.25 6.12011 13.2237 6.07322 13.1768C6.02634 13.1299 6 13.0663 6 13V10.25H5.25C5.1837 10.25 5.12011 10.2237 5.07322 10.1768C5.02634 10.1299 5 10.0663 5 10C5 9.9337 5.02634 9.87011 5.07322 9.82322C5.12011 9.77634 5.1837 9.75 5.25 9.75H7.25C7.3163 9.75 7.37989 9.77634 7.42678 9.82322C7.47366 9.87011 7.5 9.9337 7.5 10ZM12 10V13C12 13.0663 11.9737 13.1299 11.9268 13.1768C11.8799 13.2237 11.8163 13.25 11.75 13.25C11.6837 13.25 11.6201 13.2237 11.5732 13.1768C11.5263 13.1299 11.5 13.0663 11.5 13V10.75L10.45 12.15C10.4267 12.181 10.3965 12.2063 10.3618 12.2236C10.3271 12.241 10.2888 12.25 10.25 12.25C10.2112 12.25 10.1729 12.241 10.1382 12.2236C10.1035 12.2063 10.0733 12.181 10.05 12.15L9 10.75V13C9 13.0663 8.97366 13.1299 8.92678 13.1768C8.87989 13.2237 8.8163 13.25 8.75 13.25C8.6837 13.25 8.62011 13.2237 8.57322 13.1768C8.52634 13.1299 8.5 13.0663 8.5 13V10C8.5 9.94753 8.51651 9.89639 8.54719 9.85382C8.57787 9.81126 8.62117 9.77942 8.67094 9.76283C8.72072 9.74624 8.77446 9.74573 8.82454 9.76137C8.87463 9.77702 8.91852 9.80802 8.95 9.85L10.25 11.5831L11.55 9.85C11.5815 9.80802 11.6254 9.77702 11.6755 9.76137C11.7255 9.74573 11.7793 9.74624 11.8291 9.76283C11.8788 9.77942 11.9221 9.81126 11.9528 9.85382C11.9835 9.89639 12 9.94753 12 10ZM15.5 13C15.5 13.0663 15.4737 13.1299 15.4268 13.1768C15.3799 13.2237 15.3163 13.25 15.25 13.25H13.5C13.4337 13.25 13.3701 13.2237 13.3232 13.1768C13.2763 13.1299 13.25 13.0663 13.25 13V10C13.25 9.9337 13.2763 9.87011 13.3232 9.82322C13.3701 9.77634 13.4337 9.75 13.5 9.75C13.5663 9.75 13.6299 9.77634 13.6768 9.82322C13.7237 9.87011 13.75 9.9337 13.75 10V12.75H15.25C15.3163 12.75 15.3799 12.7763 15.4268 12.8232C15.4737 12.8701 15.5 12.9337 15.5 13Z" fill="black"/>
</svg>
