<svg width="36" height="50" viewBox="0 0 36 50" fill="none" xmlns="http://www.w3.org/2000/svg">
<g clip-path="url(#clip0_76_108)">
<path d="M35.3969 9.80139L32.1779 45.8623L17.7084 49.8737L3.27875 45.8679L0.0630951 9.80139H35.3969Z" fill="#E44D26"/>
<path d="M17.73 46.8074L29.4221 43.566L32.1728 12.7502H17.73V46.8074Z" fill="#F16529"/>
<path d="M11.4724 21.5972H17.73V17.1738H6.63817L6.74399 18.3605L7.83124 30.5503H17.73V26.1269H11.8767L11.4724 21.5972ZM12.4693 32.7621H8.02889L8.64856 39.7075L17.7096 42.2227L17.73 42.2172V37.615L17.7106 37.6201L12.7843 36.2899L12.4693 32.7621Z" fill="#EBEBEB"/>
<path d="M3.35049 0H5.59842V2.22091H7.65479V0H9.90285V6.72548H7.65493V4.47341H5.59856V6.72548H3.35063L3.35049 0ZM12.8588 2.23033H10.8801V0H17.0871V2.23033H15.1071V6.72548H12.8592V2.23033H12.8588ZM18.0721 0H20.416L21.8578 2.36316L23.2983 0H25.6432V6.72548H23.4044V3.39197L21.8578 5.78324H21.8191L20.2715 3.39197V6.72548H18.0721V0ZM26.7619 0H29.0105V4.50249H32.1717V6.72548H26.7617L26.7619 0Z" fill="black"/>
<path d="M17.7148 30.5503H23.1617L22.6481 36.2871L17.7146 37.6187V42.2206L26.7829 39.7075L26.8494 38.9601L27.889 27.3147L27.9969 26.1269H17.7148V30.5503ZM17.7148 21.5864V21.5972H28.3994L28.488 20.6031L28.6897 18.3605L28.7954 17.1738H17.7148V21.5864Z" fill="white"/>
</g>
<defs>
<clipPath id="clip0_76_108">
<rect width="35.46" height="50" fill="white"/>
</clipPath>
</defs>
</svg>
