<svg width="16" height="16" viewBox="0 0 16 16" fill="none" xmlns="http://www.w3.org/2000/svg">
<g clip-path="url(#clip0_54_105)">
<path d="M12.25 0H3.75C1.67893 0 0 1.67893 0 3.75V12.25C0 14.3211 1.67893 16 3.75 16H12.25C14.3211 16 16 14.3211 16 12.25V3.75C16 1.67893 14.3211 0 12.25 0Z" fill="#F0DB4F"/>
<path d="M4.207 13.3707L5.43138 12.6297C5.66763 13.0485 5.8825 13.4029 6.39794 13.4029C6.892 13.4029 7.2035 13.2096 7.2035 12.4579V7.34552H8.70713V12.4791C8.70713 14.0365 7.79425 14.7453 6.46238 14.7453C5.25956 14.7453 4.56138 14.1224 4.20694 13.3706M9.52381 13.2096L10.7481 12.5008C11.0704 13.0271 11.4893 13.4137 12.2303 13.4137C12.8533 13.4137 13.2506 13.1022 13.2506 12.6726C13.2506 12.1571 12.8424 11.9745 12.1551 11.6738L11.7793 11.5126C10.6944 11.0509 9.97481 10.4709 9.97481 9.24652C9.97481 8.11877 10.8341 7.25952 12.1766 7.25952C13.1325 7.25952 13.8199 7.59252 14.3139 8.46246L13.1432 9.21427C12.8854 8.75246 12.6063 8.5699 12.1766 8.5699C11.7363 8.5699 11.457 8.84915 11.457 9.21427C11.457 9.66533 11.7363 9.84796 12.3806 10.1273L12.7565 10.2883C14.0346 10.8361 14.7542 11.3945 14.7542 12.6511C14.7542 14.0045 13.6909 14.7455 12.2625 14.7455C10.8663 14.7455 9.96413 14.0796 9.52381 13.2096Z" fill="#323330"/>
</g>
<defs>
<clipPath id="clip0_54_105">
<rect width="16" height="16" fill="white"/>
</clipPath>
</defs>
</svg>
