<svg width="50" height="50" viewBox="0 0 50 50" fill="none" xmlns="http://www.w3.org/2000/svg">
<path d="M25 37.6667C11.1875 37.6667 0 32 0 25C0 18 11.1875 12.3334 25 12.3334C38.8125 12.3334 50 18 50 25C50 32 38.8125 37.6667 25 37.6667ZM14.1875 21.1042C15.3125 21.1042 16.0833 21.3125 16.4583 21.75C16.8333 22.1667 16.9167 22.9167 16.7292 23.8959C16.5208 25 16.125 25.7084 15.5208 26.1667C14.9375 26.625 14.0417 26.8542 12.8333 26.8542H11.0208L12.125 21.1042H14.1875ZM6.89583 32.6667H9.89583L10.6042 29.0209H13.1667C14.2917 29.0209 15.2083 28.8959 15.9375 28.6667C16.6667 28.4167 17.3333 28.0209 17.9375 27.4584C18.4375 27 18.8333 26.5 19.1458 25.9375C19.4583 25.3959 19.6875 24.7709 19.7917 24.1042C20.125 22.4792 19.8958 21.2084 19.1042 20.3125C18.2917 19.3959 17.0417 18.9584 15.3125 18.9584H9.5625L6.89583 32.6667ZM22 15.3125L19.3333 29.0209H22.2917L23.8333 21.1667H26.2083C26.9583 21.1667 27.4583 21.2917 27.6875 21.5417C27.9167 21.7917 27.9583 22.25 27.8333 22.9167L26.6458 29.0209H29.6667L30.8958 22.625C31.1667 21.3334 30.9583 20.3959 30.3333 19.7917C29.7083 19.2292 28.5625 18.9584 26.8958 18.9584H24.25L25 15.3125H22ZM37.5 21.1042C38.6458 21.1042 39.3958 21.3125 39.7708 21.75C40.1458 22.1667 40.2292 22.9167 40.0417 23.8959C39.8333 25 39.4375 25.7084 38.8542 26.1667C38.25 26.625 37.3542 26.8542 36.1458 26.8542H34.375L35.4167 21.1042H37.5ZM30.2083 32.6667H33.2083L33.9167 29.0209H36.4583C37.6042 29.0209 38.5417 28.8959 39.2708 28.6667C40 28.4167 40.625 28.0209 41.25 27.4584C41.75 27 42.1667 26.5 42.4583 25.9375C42.7708 25.3959 43 24.7709 43.125 24.1042C43.4375 22.4792 43.2083 21.2084 42.4167 20.3125C41.6667 19.3959 40.3542 18.9584 38.625 18.9584H32.8958L30.2083 32.6667Z" fill="#1E88E5"/>
</svg>
