<svg width="16" height="16" viewBox="0 0 16 16" fill="none" xmlns="http://www.w3.org/2000/svg">
<path d="M3.8 6.8955C3.95418 6.87606 4.11068 6.88739 4.26044 6.92885C4.41021 6.9703 4.55026 7.04105 4.6725 7.137C4.75125 7.25857 4.80147 7.39639 4.8194 7.54013C4.83732 7.68387 4.82248 7.82981 4.776 7.967C4.73509 8.30468 4.57179 8.61564 4.317 8.841C4.00967 9.03875 3.64652 9.13156 3.282 9.1055H2.582L3.012 6.9L3.8 6.8955ZM1 11.3385H2.15L2.4225 9.9385H3.406C3.76835 9.94812 4.12999 9.9014 4.478 9.8C4.7636 9.70501 5.02479 9.5483 5.243 9.341C5.61925 9.0019 5.87305 8.54809 5.965 8.05C6.03707 7.80198 6.04974 7.54048 6.00196 7.28666C5.95418 7.03284 5.84731 6.79384 5.69 6.589C5.50027 6.40093 5.27177 6.25656 5.02046 6.16597C4.76915 6.07537 4.50108 6.04074 4.235 6.0645H2.0285L1 11.3385ZM6.8085 4.6615H7.95L7.6735 6.0615H8.689C9.15554 6.01283 9.62421 6.13137 10.0115 6.396C10.1398 6.54157 10.2274 6.71834 10.2657 6.90854C10.304 7.09873 10.2915 7.29566 10.2295 7.4795L9.7525 9.934H8.5975L9.0515 7.6005C9.08298 7.51145 9.0942 7.4165 9.08434 7.32256C9.07448 7.22862 9.04379 7.13807 8.9945 7.0575C8.82899 6.93875 8.62442 6.8876 8.4225 6.9145H7.511L6.9235 9.9365H5.7795L6.8085 4.6615ZM12.7695 6.8955C12.9237 6.87606 13.0802 6.88739 13.2299 6.92885C13.3797 6.9703 13.5198 7.04105 13.642 7.137C13.7208 7.25857 13.771 7.39639 13.7889 7.54013C13.8068 7.68387 13.792 7.82981 13.7455 7.967C13.7046 8.30468 13.5413 8.61564 13.2865 8.841C12.9786 9.03917 12.6147 9.132 12.2495 9.1055H11.55L11.979 6.8975L12.7695 6.8955ZM9.9695 11.3385H11.1195L11.392 9.9385H12.376C12.739 9.94833 13.1014 9.9016 13.45 9.8C13.7356 9.70501 13.9968 9.5483 14.215 9.341C14.5903 9.00154 14.8432 8.54777 14.9345 8.05C15.0066 7.80198 15.0192 7.54048 14.9715 7.28666C14.9237 7.03284 14.8168 6.79384 14.6595 6.589C14.4697 6.40127 14.2412 6.25721 13.99 6.16688C13.7388 6.07655 13.4709 6.04212 13.205 6.066H10.995L9.9695 11.3385Z" fill="#8993BE"/>
</svg>
